<svg xmlns="http://www.w3.org/2000/svg" xmlns:xlink="http://www.w3.org/1999/xlink" width="230" zoomAndPan="magnify" viewBox="0 0 172.5 35.25" height="47" preserveAspectRatio="xMidYMid meet" version="1.0"><defs><g/></defs><g fill="#2b3339" fill-opacity="1"><g transform="translate(5.01365, 22.29653)"><g><path d="M 6.6875 0 L 3.234375 -5.125 L 3.234375 0 L 1.28125 0 L 1.28125 -10.6875 L 3.234375 -10.6875 L 3.234375 -5.375 L 6.640625 -10.6875 L 8.90625 -10.6875 L 5.25 -5.390625 L 9.140625 0 Z M 6.6875 0 "/></g></g></g><g fill="#2b3339" fill-opacity="1"><g transform="translate(15.973424, 22.29653)"><g><path d="M 6.28125 -1.546875 L 2.453125 -1.546875 L 1.890625 0 L -0.265625 0 L 4.265625 -10.875 L 4.421875 -10.875 L 8.953125 0 L 6.875 0 Z M 5.703125 -3.03125 L 4.59375 -5.953125 L 4.328125 -6.8125 L 4.078125 -5.953125 L 3 -3.03125 Z M 5.703125 -3.03125 "/></g></g></g><g fill="#2b3339" fill-opacity="1"><g transform="translate(26.488051, 22.29653)"><g><path d="M 6.421875 -1.6875 L 6.421875 0 L 1.28125 0 L 1.28125 -10.6875 L 3.234375 -10.6875 L 3.234375 -1.6875 Z M 6.421875 -1.6875 "/></g></g></g><g fill="#2b3339" fill-opacity="1"><g transform="translate(35.130002, 22.29653)"><g><path d="M 6.28125 -1.546875 L 2.453125 -1.546875 L 1.890625 0 L -0.265625 0 L 4.265625 -10.875 L 4.421875 -10.875 L 8.953125 0 L 6.875 0 Z M 5.703125 -3.03125 L 4.59375 -5.953125 L 4.328125 -6.8125 L 4.078125 -5.953125 L 3 -3.03125 Z M 5.703125 -3.03125 "/></g></g></g><g fill="#2b3339" fill-opacity="1"><g transform="translate(45.644631, 22.29653)"><g><path d="M 12.4375 -10.6875 L 8.90625 0.015625 L 8.65625 0.015625 L 6.140625 -6.109375 L 3.6875 0 L 3.421875 0 L -0.15625 -10.6875 L 1.96875 -10.6875 L 3.828125 -4.484375 L 6.0625 -10.6875 L 6.328125 -10.6875 L 8.578125 -4.515625 L 10.34375 -10.6875 Z M 12.4375 -10.6875 "/></g></g></g><g fill="#2b3339" fill-opacity="1"><g transform="translate(59.751117, 22.29653)"><g><path d="M 6.28125 -1.546875 L 2.453125 -1.546875 L 1.890625 0 L -0.265625 0 L 4.265625 -10.875 L 4.421875 -10.875 L 8.953125 0 L 6.875 0 Z M 5.703125 -3.03125 L 4.59375 -5.953125 L 4.328125 -6.8125 L 4.078125 -5.953125 L 3 -3.03125 Z M 5.703125 -3.03125 "/></g></g></g><g fill="#2b3339" fill-opacity="1"><g transform="translate(70.265746, 22.29653)"><g><path d="M 1.828125 0.234375 C 1.535156 0.234375 1.179688 0.179688 0.765625 0.078125 C 0.359375 -0.015625 0.0664062 -0.128906 -0.109375 -0.265625 L 0.625 -2.09375 C 0.757812 -1.894531 0.925781 -1.738281 1.125 -1.625 C 1.320312 -1.519531 1.523438 -1.46875 1.734375 -1.46875 C 1.992188 -1.46875 2.210938 -1.5 2.390625 -1.5625 C 2.566406 -1.632812 2.710938 -1.78125 2.828125 -2 C 2.953125 -2.226562 3.015625 -2.566406 3.015625 -3.015625 L 3.015625 -10.6875 L 5.015625 -10.6875 L 5.015625 -3.203125 C 5.015625 -2.160156 4.765625 -1.328125 4.265625 -0.703125 C 3.773438 -0.078125 2.960938 0.234375 1.828125 0.234375 Z M 1.828125 0.234375 "/></g></g></g><g fill="#2b3339" fill-opacity="1"><g transform="translate(78.216955, 22.29653)"><g><path d="M 6.28125 -1.546875 L 2.453125 -1.546875 L 1.890625 0 L -0.265625 0 L 4.265625 -10.875 L 4.421875 -10.875 L 8.953125 0 L 6.875 0 Z M 5.703125 -3.03125 L 4.59375 -5.953125 L 4.328125 -6.8125 L 4.078125 -5.953125 L 3 -3.03125 Z M 5.703125 -3.03125 "/></g></g></g><g fill="#ffd51e" fill-opacity="1"><g transform="translate(97.943108, 22.29653)"><g><path d="M 4 -10.6875 C 5.570312 -10.6875 6.773438 -10.25 7.609375 -9.375 C 8.441406 -8.5 8.859375 -7.203125 8.859375 -5.484375 C 8.859375 -4.359375 8.664062 -3.382812 8.28125 -2.5625 C 7.90625 -1.738281 7.351562 -1.101562 6.625 -0.65625 C 5.90625 -0.21875 5.023438 0 3.984375 0 L 1.25 0 L 1.25 -10.6875 Z M 3.9375 -1.6875 C 4.644531 -1.6875 5.21875 -1.859375 5.65625 -2.203125 C 6.09375 -2.554688 6.398438 -3.007812 6.578125 -3.5625 C 6.765625 -4.125 6.859375 -4.75 6.859375 -5.4375 C 6.859375 -6.519531 6.628906 -7.410156 6.171875 -8.109375 C 5.710938 -8.804688 4.96875 -9.15625 3.9375 -9.15625 L 3.21875 -9.15625 L 3.21875 -1.6875 Z M 3.9375 -1.6875 "/></g></g></g><g fill="#ffd51e" fill-opacity="1"><g transform="translate(110.668115, 22.29653)"><g><path d="M 7.140625 -1.734375 L 7.140625 0 L 1.25 0 L 1.25 -10.6875 L 6.828125 -10.6875 L 6.828125 -9.015625 L 3.15625 -9.015625 L 3.15625 -6.515625 L 6.078125 -6.515625 L 6.078125 -4.890625 L 3.15625 -4.890625 L 3.15625 -1.734375 Z M 7.140625 -1.734375 "/></g></g></g><g fill="#ffd51e" fill-opacity="1"><g transform="translate(121.842785, 22.29653)"><g><path d="M 3.890625 0.171875 C 3.421875 0.171875 2.972656 0.113281 2.546875 0 C 2.128906 -0.113281 1.757812 -0.257812 1.4375 -0.4375 C 1.125 -0.613281 0.875 -0.800781 0.6875 -1 L 1.46875 -2.609375 C 1.59375 -2.453125 1.773438 -2.285156 2.015625 -2.109375 C 2.253906 -1.941406 2.523438 -1.796875 2.828125 -1.671875 C 3.140625 -1.546875 3.453125 -1.484375 3.765625 -1.484375 C 4.160156 -1.484375 4.492188 -1.59375 4.765625 -1.8125 C 5.046875 -2.039062 5.1875 -2.359375 5.1875 -2.765625 C 5.1875 -3.023438 5.125 -3.25 5 -3.4375 C 4.875 -3.632812 4.707031 -3.804688 4.5 -3.953125 C 4.289062 -4.109375 3.972656 -4.316406 3.546875 -4.578125 C 2.953125 -4.929688 2.488281 -5.234375 2.15625 -5.484375 C 1.832031 -5.742188 1.546875 -6.078125 1.296875 -6.484375 C 1.054688 -6.898438 0.9375 -7.398438 0.9375 -7.984375 C 0.9375 -8.546875 1.054688 -9.046875 1.296875 -9.484375 C 1.546875 -9.921875 1.90625 -10.257812 2.375 -10.5 C 2.851562 -10.75 3.425781 -10.875 4.09375 -10.875 C 5.1875 -10.875 6.097656 -10.539062 6.828125 -9.875 L 5.96875 -8.3125 C 5.882812 -8.4375 5.753906 -8.570312 5.578125 -8.71875 C 5.398438 -8.863281 5.1875 -8.988281 4.9375 -9.09375 C 4.695312 -9.195312 4.441406 -9.25 4.171875 -9.25 C 3.773438 -9.25 3.46875 -9.132812 3.25 -8.90625 C 3.039062 -8.675781 2.9375 -8.394531 2.9375 -8.0625 C 2.9375 -7.800781 3 -7.566406 3.125 -7.359375 C 3.257812 -7.160156 3.429688 -6.976562 3.640625 -6.8125 C 3.847656 -6.65625 4.132812 -6.472656 4.5 -6.265625 C 5.144531 -5.878906 5.640625 -5.554688 5.984375 -5.296875 C 6.328125 -5.035156 6.613281 -4.703125 6.84375 -4.296875 C 7.082031 -3.898438 7.203125 -3.410156 7.203125 -2.828125 C 7.203125 -2.203125 7.066406 -1.664062 6.796875 -1.21875 C 6.523438 -0.769531 6.140625 -0.425781 5.640625 -0.1875 C 5.148438 0.0507812 4.566406 0.171875 3.890625 0.171875 Z M 3.890625 0.171875 "/></g></g></g><g fill="#ffd51e" fill-opacity="1"><g transform="translate(132.986759, 22.29653)"><g><path d="M 1.25 -10.6875 L 3.203125 -10.6875 L 3.203125 0 L 1.25 0 Z M 1.25 -10.6875 "/></g></g></g><g fill="#ffd51e" fill-opacity="1"><g transform="translate(140.845873, 22.29653)"><g><path d="M 9.046875 -5.734375 C 9.109375 -5.097656 9.140625 -4.601562 9.140625 -4.25 C 9.140625 -2.882812 8.84375 -1.785156 8.25 -0.953125 C 7.65625 -0.128906 6.585938 0.28125 5.046875 0.28125 C 4.191406 0.28125 3.421875 0.0507812 2.734375 -0.40625 C 2.054688 -0.863281 1.523438 -1.519531 1.140625 -2.375 C 0.753906 -3.238281 0.5625 -4.265625 0.5625 -5.453125 C 0.5625 -6.492188 0.765625 -7.425781 1.171875 -8.25 C 1.578125 -9.070312 2.140625 -9.710938 2.859375 -10.171875 C 3.578125 -10.640625 4.394531 -10.875 5.3125 -10.875 C 5.9375 -10.875 6.453125 -10.828125 6.859375 -10.734375 C 7.273438 -10.640625 7.59375 -10.523438 7.8125 -10.390625 C 8.039062 -10.253906 8.242188 -10.097656 8.421875 -9.921875 L 7.578125 -8.21875 C 7.148438 -8.78125 6.40625 -9.0625 5.34375 -9.0625 C 4.832031 -9.0625 4.367188 -8.910156 3.953125 -8.609375 C 3.535156 -8.304688 3.207031 -7.882812 2.96875 -7.34375 C 2.738281 -6.800781 2.625 -6.1875 2.625 -5.5 C 2.625 -4.65625 2.722656 -3.925781 2.921875 -3.3125 C 3.128906 -2.707031 3.414062 -2.242188 3.78125 -1.921875 C 4.15625 -1.597656 4.585938 -1.4375 5.078125 -1.4375 C 5.847656 -1.4375 6.398438 -1.617188 6.734375 -1.984375 C 7.078125 -2.347656 7.25 -2.898438 7.25 -3.640625 C 7.25 -3.722656 7.25 -3.859375 7.25 -4.046875 L 5.046875 -4.046875 L 5.046875 -5.734375 Z M 9.046875 -5.734375 "/></g></g></g><g fill="#ffd51e" fill-opacity="1"><g transform="translate(153.908573, 22.29653)"><g><path d="M 8.859375 -10.6875 L 8.859375 0.21875 L 8.703125 0.21875 L 3.578125 -5.625 L 3.09375 -6.25 L 3.171875 -4.75 L 3.171875 0 L 1.28125 0 L 1.28125 -10.875 L 1.453125 -10.875 L 6.5 -4.984375 L 7.046875 -4.28125 L 6.96875 -5.75 L 6.96875 -10.6875 Z M 8.859375 -10.6875 "/></g></g></g></svg>